<svg xmlns="http://www.w3.org/2000/svg" xmlns:xlink="http://www.w3.org/1999/xlink" width="40" height="40" viewBox="0 0 40 40"><defs><clipPath id="b"><rect width="40" height="40"/></clipPath></defs><g id="a"><rect width="1" height="26" transform="translate(15 8)" fill="#adc3ce"/><rect width="1" height="26" transform="translate(33 15) rotate(90)" fill="#adc3ce"/><rect width="1" height="26" transform="translate(20 8)" fill="#adc3ce"/><rect width="1" height="26" transform="translate(33 20) rotate(90)" fill="#adc3ce"/><rect width="1" height="26" transform="translate(25 8)" fill="#adc3ce"/><rect width="1" height="26" transform="translate(33 25) rotate(90)" fill="#adc3ce"/><circle cx="1.5" cy="1.5" r="1.5" transform="translate(14 6)" fill="#adc3ce"/><circle cx="1.5" cy="1.5" r="1.5" transform="translate(35 14) rotate(90)" fill="#adc3ce"/><circle cx="1.5" cy="1.5" r="1.5" transform="translate(14 32)" fill="#adc3ce"/><circle cx="1.5" cy="1.5" r="1.5" transform="translate(9 14) rotate(90)" fill="#adc3ce"/><circle cx="1.5" cy="1.5" r="1.5" transform="translate(19 6)" fill="#adc3ce"/><circle cx="1.5" cy="1.5" r="1.5" transform="translate(35 19) rotate(90)" fill="#adc3ce"/><circle cx="1.5" cy="1.5" r="1.5" transform="translate(19 32)" fill="#adc3ce"/><circle cx="1.5" cy="1.5" r="1.5" transform="translate(9 19) rotate(90)" fill="#adc3ce"/><circle cx="1.5" cy="1.5" r="1.5" transform="translate(24 6)" fill="#adc3ce"/><circle cx="1.5" cy="1.5" r="1.5" transform="translate(35 24) rotate(90)" fill="#adc3ce"/><circle cx="1.5" cy="1.5" r="1.5" transform="translate(24 32)" fill="#adc3ce"/><circle cx="1.5" cy="1.5" r="1.5" transform="translate(9 24) rotate(90)" fill="#adc3ce"/><rect width="15" height="15" rx="3" transform="translate(13 13)" fill="#adc3ce"/><rect width="7" height="7" rx="1" transform="translate(17 17)" fill="#758187"/></g></svg>