<svg xmlns="http://www.w3.org/2000/svg" xmlns:xlink="http://www.w3.org/1999/xlink" width="40" height="40" viewBox="0 0 40 40"><defs><clipPath id="b"><rect width="40" height="40"/></clipPath></defs><g id="a"><path d="M10.5,0l9.486,14.454a1.17,1.17,0,0,1,.327,1.066c-.187.552-.921.48-.921.48H0Z" transform="translate(15 14)" fill="#d6b6a4"/><path d="M12.5,0,24.154,18.647a.779.779,0,0,1,.085.823,1.142,1.142,0,0,1-.785.53H1.868a1.067,1.067,0,0,1-.843-.4c-.41-.449,0-1.24,0-1.24Z" transform="translate(4 10)" fill="#c68564"/><path d="M6.5,0l6.831,10.707L8.614,9.43l-4.1,3.632L-.034,10.43Z" transform="translate(10 10)" fill="#f3f3f3"/><path d="M2.938,0,6.025,4.684,3.7,4.115,1.932,5.7-.054,4.548Z" transform="translate(22.579 14)" fill="#f3f3f3"/></g></svg>