<svg xmlns="http://www.w3.org/2000/svg" xmlns:xlink="http://www.w3.org/1999/xlink" width="32" height="32" viewBox="0 0 32 32"><defs><clipPath id="b"><rect width="32" height="32"/></clipPath></defs><g id="a"><g transform="translate(-72.512 42.767)"><path d="M-10008-10482.843l16.188,10.105,13.515-10.105-16.512-8.157Z" transform="translate(10082 10455.43)" fill="#70c401"/></g><ellipse cx="6.5" cy="3.5" rx="6.5" ry="3.5" transform="translate(9 13)" fill="#6db80b"/><path d="M957.112-4.443a22.944,22.944,0,0,0-2.485-7.317C952.608-15.418,948-18.374,948-18.374s5.8.553,8.076,2.725,2.066,4.224,2.066,6.854A9.178,9.178,0,0,1,957.112-4.443Z" transform="translate(-923.392 203.925) rotate(-11)" fill="#83e700"/><path d="M959.185-4.443a29.066,29.066,0,0,0-3.59-8.107,20.225,20.225,0,0,0-4.853-5.236,20.017,20.017,0,0,1,7.216,3.028c2.8,2.172,1.377,3.635,1.377,6.266S959.185-4.443,959.185-4.443Z" transform="matrix(0.978, 0.208, -0.208, 0.978, -924.016, -178.225)" fill="#91ff00"/><path d="M949.027-8.226a13.708,13.708,0,0,1,2.489-5.33c2.022-2.665,6.643-4.818,6.643-4.818s-5.807.4-8.09,1.985S948-13.312,948-11.4A5.371,5.371,0,0,0,949.027-8.226Z" transform="translate(-890.015 -267.187) rotate(18)" fill="#7cd605"/><path d="M948.729-6.217s1.517-7.223,4.054-8.9,5.749-6.085,5.749-6.085a55.773,55.773,0,0,0-6.752,3.593C949.5-16.023,948-13.312,948-11.4A31.73,31.73,0,0,0,948.729-6.217Z" transform="translate(-925.127 -107.791) rotate(8)" fill="#83e700"/><path d="M941.562-8.106a14.838,14.838,0,0,1,1.478-2.365,14.98,14.98,0,0,1,1.959-2,4.426,4.426,0,0,0-2.266,1.122,8.691,8.691,0,0,0-1.614,2.678,28.521,28.521,0,0,0,.8-3.1A14.771,14.771,0,0,1,943.039-15a6.9,6.9,0,0,0-2.2,2.275,5.113,5.113,0,0,0-.3,2.254v.682l-1.064-1.556-1.691-1.122,1.244,2.369a7.89,7.89,0,0,0-2.179-1.248c-1.031-.312-2.676.874-2.676.874a20.751,20.751,0,0,1,2.676.682,5.15,5.15,0,0,1,1.689,1.122l-1.259-.256-1.161.817h1.161l.982.357s.938.882,1.528.882a2.871,2.871,0,0,0,1.332-.552Z" transform="matrix(0.921, 0.391, -0.391, 0.921, -853.319, -342.692)" fill="#6bb904"/><path d="M939.285,24.04l.912-1.968,2.821,1.632a7.627,7.627,0,0,0-2.821-3.115,45.161,45.161,0,0,0-6.335-3.416,41.3,41.3,0,0,1,3.824,4.118A9.606,9.606,0,0,1,939.285,24.04Z" transform="translate(-926 -16)" fill="#c9ff81"/><path d="M942.056,28.191a16.3,16.3,0,0,1,2.437-2.263c.862-.507,1.013.237,1.013.237a8.54,8.54,0,0,0,3.271-1.665c1.859-1.412,4.342-3.807,4.342-3.807a22.481,22.481,0,0,0-7.377,2.495A9.6,9.6,0,0,0,942.056,28.191Z" transform="translate(-926 -16)" fill="#7ad600"/></g></svg>