<svg xmlns="http://www.w3.org/2000/svg" xmlns:xlink="http://www.w3.org/1999/xlink" width="32" height="32" viewBox="0 0 32 32"><defs><clipPath id="b"><rect width="32" height="32"/></clipPath></defs><g id="a"><g transform="translate(1.488 6.767)"><path d="M-10008-10482.843l16.188,10.105,13.515-10.105-16.512-8.157Z" transform="translate(10008 10492.43)" fill="#023b0a"/></g><g transform="translate(0.07 5.378)"><path d="M-9991.4-10491.047l9.246,5.405v-12.851l-9.246-4.459Z" transform="translate(9999.999 10500.713)" fill="#00b41a"/><path d="M-9977.839-10492.07l5.7-3.98.236-12.183-5.937,3.422Z" transform="translate(9995.686 10507.154)" fill="#004b12"/><path d="M-9991.917-10489.905l9.8,4.778,6.515-3.675-9.642-4.272Z" transform="translate(9999.961 10487.854)" fill="#02ff26"/><path d="M10.642,10.475v-1.1s.184-.559.948-.132a2.339,2.339,0,0,1,1.01,1.232v1.1Z" transform="translate(1 1)" fill="#00580d"/><path d="M9.784-2.161l4.708-2.222L22.439-.8,17.774,1.759Z" fill="#00ce1e"/><path d="M-9991.4-10501.528l1.584.736v-1.512l-1.584-.647Z" transform="translate(10004.998 10498.874)" fill="#00b41a"/><path d="M-9991.4-10501.528l1.584.736v-1.512l-1.584-.647Z" transform="translate(10008.998 10500.874)" fill="#00b41a"/><path d="M-9977.839-10506.218l.977-.551v-1.5l-.977.563Z" transform="translate(9993.022 10504.302)" fill="#004b12"/><path d="M-9977.839-10506.218l.977-.551v-1.5l-.977.563Z" transform="translate(9997.022 10506.302)" fill="#004b12"/><path d="M-9991.34-10492.512l1.594.643.969-.511-1.584-.568Z" transform="translate(10004.942 10488.439)" fill="#9dffab"/><path d="M-9991.34-10492.512l1.594.643.969-.511-1.584-.568Z" transform="translate(10008.942 10490.439)" fill="#9dffab"/><path d="M8.622,7.084v.744l9.207,5.011v-.726Z" fill="#02ff26"/><path d="M17.846,12.062,23.6,8.532v.777l-5.75,3.633Z" fill="#00b41a"/><path d="M9.275,6.921l.758.388V-.473l-.758-.37Z" fill="#00580d"/><path d="M9.275,7.57l.758.384V-.128L9.275-.5Z" transform="translate(7 3)" fill="#00580d"/><path d="M9.275,6.921l.758.388V-.473l-.758-.37Z" transform="translate(2 1)" fill="#00580d"/><path d="M8.775,6.229l.844.427V-1.282l-.844-.4Z" transform="translate(5 3)" fill="#00580d"/><path d="M7.315,62.066V60.922l7.639,4.225v1.5Z" fill="none" stroke="#707070" stroke-width="1"/></g></g></svg>