<svg xmlns="http://www.w3.org/2000/svg" xmlns:xlink="http://www.w3.org/1999/xlink" width="32" height="32" viewBox="0 0 32 32"><defs><clipPath id="b"><rect width="32" height="32"/></clipPath></defs><g id="a"><g transform="translate(1.488 6.767)"><path d="M-10008-10482.843l16.188,10.105,13.515-10.105-16.512-8.157Z" transform="translate(10008 10492.43)" fill="#065b12"/></g><g transform="translate(-2 2.599)"><path d="M-9991.4-10488.85l11.725,7.117.133-10.134-11.857-6.12Z" transform="translate(9999.999 10501.578)" fill="#00b41a"/><path d="M-9989.369-10489.464l11.91,6.406v-1.086l-11.91-6.3Z" transform="translate(9997.982 10495.559)" fill="#00580d"/><path d="M-9989.369-10489.464l11.91,6.406v-1.086l-11.91-6.3Z" transform="translate(9997.982 10497.388)" fill="#00580d"/><path d="M-9989.369-10489.464l11.91,6.593.086-1.138-12-6.435Z" transform="translate(9997.982 10499.217)" fill="#00580d"/><path d="M-9989.369-10489.464l11.757,6.682v-1.109l-11.757-6.552Z" transform="translate(9997.982 10501.044)" fill="#00580d"/><path d="M-9977.839-10488.589l7.228-5.24.233-9.236-7.329,4.376Z" transform="translate(9998.165 10508.451)" fill="#004b12"/><path d="M-9991.34-10489.177l11.824,6.146,7.4-4.48-11.895-5.35Z" transform="translate(9999.967 10492.854)" fill="#02ff26"/><path d="M34.45,19.64l7.271-4.419-.1,1.09L34.45,20.749Z" transform="translate(-13.991 -8.267)" fill="#002612"/><path d="M34.45,19.64l7.271-4.419-.1,1.09L34.45,20.749Z" transform="translate(-13.991 -6.438)" fill="#002612"/><path d="M34.45,19.64l7.271-4.419-.1,1.09L34.45,20.749Z" transform="translate(-13.991 -4.609)" fill="#002612"/><path d="M34.45,19.64l7.271-4.419-.1,1.09L34.45,20.749Z" transform="translate(-13.991 -2.781)" fill="#002612"/></g></g></svg>