<svg xmlns="http://www.w3.org/2000/svg" xmlns:xlink="http://www.w3.org/1999/xlink" width="32" height="32" viewBox="0 0 32 32"><defs><clipPath id="b"><rect width="32" height="32"/></clipPath></defs><g id="a"><g transform="translate(1.488 6.767)"><path d="M-10008-10482.843l16.188,10.105,13.515-10.105-16.512-8.157Z" transform="translate(10008 10492.43)" fill="#00c1ff"/></g><g transform="translate(0.07 5.378)"><path d="M-9991.4-10491.047l9.246,5.405v-12.851l-9.246-4.459Z" transform="translate(9999.999 10500.713)" fill="#00b41a"/><path d="M-9977.839-10492.07l5.7-3.98.236-12.183-5.937,3.422Z" transform="translate(9995.686 10507.154)" fill="#004b12"/><path d="M-9991.917-10489.905l9.8,4.778,6.515-3.675-9.642-4.272Z" transform="translate(9999.961 10487.854)" fill="#02ff26"/><path d="M9.784-2.161l4.708-2.222L22.439-.8,17.774,1.759Z" fill="#00ce1e"/><path d="M-9991.4-10501.528l1.584.736v-1.512l-1.584-.647Z" transform="translate(10004.998 10498.874)" fill="#00b41a"/><path d="M-9991.4-10501.528l1.584.736v-1.512l-1.584-.647Z" transform="translate(10008.998 10500.874)" fill="#00b41a"/><path d="M-9977.839-10506.218l.977-.551v-1.5l-.977.563Z" transform="translate(9993.022 10504.302)" fill="#004b12"/><path d="M-9977.839-10506.218l.977-.551v-1.5l-.977.563Z" transform="translate(9997.022 10506.302)" fill="#004b12"/><path d="M-9991.34-10492.512l1.594.643.969-.511-1.584-.568Z" transform="translate(10004.942 10488.439)" fill="#9dffab"/><path d="M-9991.34-10492.512l1.594.643.969-.511-1.584-.568Z" transform="translate(10008.942 10490.439)" fill="#9dffab"/><path d="M8.622,7.084v.744l9.207,5.011v-.726Z" fill="#02ff26"/><path d="M17.846,12.062l5.75-3.51v1.1l-5.75,3.288Z" fill="#00b41a"/><path d="M9.275,6.921l.758.388V-.473l-.758-.37Z" fill="#00580d"/><path d="M9.275,7.57l.758.384V-.128L9.275-.5Z" transform="translate(7 3)" fill="#00580d"/><path d="M9.275,6.921l.758.388V-.473l-.758-.37Z" transform="translate(2 1)" fill="#00580d"/><path d="M8.775,6.229l.844.427V-1.282l-.844-.4Z" transform="translate(5 3)" fill="#00580d"/><path d="M8.6,7.773l9.256,5.064v2.38L8.6,9.647Z" fill="#0089cf"/><path d="M23.6,10.955,17.758,15.2V12.9L23.6,9.326Z" fill="#0071a9"/><path d="M9.442,10.177V8.8l6.546,3.752v1.56Z" fill="#03243e"/></g><path d="M638.653,139.459l-.835.924,9.461,5.413.623-.622v-.7Z" transform="translate(-630 -127)" fill="#73d0ff"/></g></svg>