<svg xmlns="http://www.w3.org/2000/svg" xmlns:xlink="http://www.w3.org/1999/xlink" width="32" height="32" viewBox="0 0 32 32"><defs><clipPath id="b"><rect width="32" height="32"/></clipPath></defs><g id="a"><g transform="translate(1.488 6.767)"><path d="M-10008-10482.843l16.188,10.105,13.515-10.105-16.512-8.157Z" transform="translate(10008 10492.43)" fill="#008f15"/></g><g transform="translate(-1 4.135)"><path d="M-9991.4-10484.119l8.229,5.07v-10.01l-8.229-4.393Z" transform="translate(10002.32 10496.844)" fill="#00b41a"/><path d="M-9989.371-10487.886l2.07,1.249v-2.646l-2.07-1.175Z" transform="translate(10000.896 10496.135)" fill="#00580d"/><path d="M-9989.34-10487.381l2.07,1.248v-2.638l-2.07-1.175Z" transform="translate(10005.579 10498.349)" fill="#00580d"/><path d="M-9989.3-10487.586l2.07,1.248v-2.645l-2.07-1.175Z" transform="translate(10003.215 10497.225)" fill="#00580d"/><path d="M-9977.381-10478.668l6.032-4.48v-9.349l-6.032,3.894Z" transform="translate(9996.532 10496.466)" fill="#006117"/><path d="M-9992.33-10486.559l8.148,4.514,5.941-3.819-8.012-4.138Z" transform="translate(10003.291 10490.042)" fill="#02ff26"/></g></g></svg>