<svg xmlns="http://www.w3.org/2000/svg" xmlns:xlink="http://www.w3.org/1999/xlink" width="32" height="32" viewBox="0 0 32 32"><defs><clipPath id="b"><rect width="32" height="32"/></clipPath></defs><g id="a"><g transform="translate(1.488 6.767)"><path d="M-10008-10482.843l16.188,10.105,13.515-10.105-16.512-8.157Z" transform="translate(10008 10492.43)" fill="#008f15"/></g><g transform="translate(8.483 5.626)"><path d="M-9991.4-10487.328l4.8,3.326v-6.566l-4.8-2.883Z" transform="translate(9991.647 10496.307)" fill="#00b41a"/><path d="M-9989.241-10488.484l.847.508v-1.772l-.847-.521Z" transform="translate(9989.972 10494.813)" fill="#00580d"/><path d="M-9989.159-10488.332l.988.611v-1.758l-.988-.587Z" transform="translate(9992.561 10496.053)" fill="#00580d"/><path d="M-9977.381-10483.424l4.942-4.146.188-5.928-5.13,3.556Z" transform="translate(9982.434 10495.73)" fill="#006117"/><path d="M-9992.795-10487.586l5.1,3.021,5.132-3.662-5.132-2.521Z" transform="translate(9992.795 10490.002)" fill="#02ff26"/><path d="M11.919,1.691,16.11-.945l4.246,2.1L16.11,4.1Z" transform="translate(-11.088 0.725)" fill="#00b41a"/><path d="M4.051,13.04l1.061-.773L.216,8.922l-1.1.828Z" fill="#006117"/><path d="M.239,7.36l-1.18.963,4.949,3.119,1.149-1.189Z" fill="#02ff26"/></g><g transform="translate(15.483 9.626)"><path d="M-9991.4-10487.328l4.8,3.326v-6.566l-4.8-2.883Z" transform="translate(9991.647 10496.307)" fill="#00b41a"/><path d="M-9989.241-10488.484l.847.508v-1.772l-.847-.521Z" transform="translate(9989.972 10494.813)" fill="#00580d"/><path d="M-9989.159-10488.332l.988.611v-1.758l-.988-.587Z" transform="translate(9992.561 10496.053)" fill="#00580d"/><path d="M-9977.381-10483.424l4.942-4.146.188-5.928-5.13,3.556Z" transform="translate(9982.434 10495.73)" fill="#006117"/><path d="M-9992.795-10487.586l5.1,3.021,5.132-3.662-5.132-2.521Z" transform="translate(9992.795 10490.002)" fill="#02ff26"/><path d="M11.919,1.691,16.11-.945l4.246,2.1L16.11,4.1Z" transform="translate(-11.088 0.725)" fill="#00b41a"/><path d="M4.051,13.04l1.061-.773L.216,8.922l-1.1.828Z" fill="#006117"/><path d="M.239,7.36l-1.18.963,4.949,3.119,1.149-1.189Z" fill="#02ff26"/></g><path d="M542.73,82.505l-.266-.7,5.07,3.052v.622Z" transform="translate(-534 -73.799)" fill="#08961c"/><path d="M542.73,82.505l-.266-.7,5.07,3.052v.622Z" transform="translate(-527 -69.799)" fill="#08961c"/><path d="M551.149,84.986l5.233-3.633-.119.523-5.113,3.686Z" transform="translate(-537.615 -73.967)" fill="#024412"/><path d="M551.149,84.986l5.233-3.633-.119.523-5.113,3.686Z" transform="translate(-530.615 -69.967)" fill="#024412"/></g></svg>